<svg viewBox="0 0 20 20" xmlns="http://www.w3.org/2000/svg" fill-rule="evenodd" clip-rule="evenodd" stroke-linejoin="round" stroke-miterlimit="1.414"><path d="M6.621 19.535v-1.118s2.097-.978 2.093-.987c-.443-.999-.37-3.705-.37-3.705l-.006-1.744L0 14.486v-1.424l8.332-6.337s.027-2.976.027-4.333C8.359 1.036 10 .217 10 .217l.005.002c.096.05 1.636.86 1.636 2.173 0 1.357.027 4.333.027 4.333L20 13.062v1.424l-8.338-2.505-.006 1.744s.073 2.706-.37 3.705c-.004.009 2.093.987 2.093.987v1.118L10 19.045l-3.379.49z" fill="#FF4500"/></svg>